<svg width="1260" height="293" viewBox="0 0 1260 293" fill="none" xmlns="http://www.w3.org/2000/svg">
<path d="M254.503 4.2V289H193.303V169.4H61.3031V289H0.103126V4.2H61.3031V119.4H193.303V4.2H254.503ZM311.822 4.2H508.222V52.6H372.622V119.8H499.822V168.6H372.622V240.6H508.222V289H311.822V4.2ZM551.275 4.2H613.675V238.2H740.875V289H551.275V4.2ZM779.009 4.2H841.409V238.2H968.609V289H779.009V4.2ZM1121.53 292.6C1093.26 292.6 1068.59 286.733 1047.53 275C1026.73 263 1010.59 245.933 999.128 223.8C987.928 201.667 982.328 175.8 982.328 146.2C982.328 116.6 987.928 90.8667 999.128 69C1010.59 47.1333 1026.73 30.3333 1047.53 18.6C1068.59 6.59999 1093.26 0.599994 1121.53 0.599994C1149.79 0.599994 1174.33 6.59999 1195.13 18.6C1215.93 30.3333 1231.93 47.1333 1243.13 69C1254.33 90.8667 1259.93 116.6 1259.93 146.2C1259.93 175.8 1254.33 201.667 1243.13 223.8C1231.93 245.933 1215.93 263 1195.13 275C1174.33 286.733 1149.79 292.6 1121.53 292.6ZM1121.53 243.8C1145.53 243.8 1164.19 235.4 1177.53 218.6C1191.13 201.8 1197.93 177.667 1197.93 146.2C1197.93 114.733 1191.13 90.7333 1177.53 74.2C1164.19 57.6667 1145.53 49.4 1121.53 49.4C1097.53 49.4 1078.73 57.6667 1065.13 74.2C1051.79 90.7333 1045.13 114.733 1045.13 146.2C1045.13 177.933 1051.79 202.2 1065.13 219C1078.73 235.533 1097.53 243.8 1121.53 243.8Z" fill="#E5E5E5" fill-opacity="0.8"/>
</svg>
