<svg width="185" height="12" viewBox="0 0 185 12" fill="none" xmlns="http://www.w3.org/2000/svg">
<path d="M5.81445 1.04688H7.13379V8.09473C7.13379 9.0472 6.84668 9.79232 6.27246 10.3301C5.7028 10.8678 4.94173 11.1367 3.98926 11.1367C3.00033 11.1367 2.23014 10.8838 1.67871 10.3779C1.12728 9.87207 0.851562 9.16341 0.851562 8.25195H2.16406C2.16406 8.82161 2.31901 9.26595 2.62891 9.58496C2.94336 9.90397 3.39681 10.0635 3.98926 10.0635C4.53158 10.0635 4.96908 9.89258 5.30176 9.55078C5.639 9.20898 5.8099 8.73047 5.81445 8.11523V1.04688ZM18.4678 6.39941H14.1543V9.92676H19.165V11H12.8418V1.04688H19.0967V2.12695H14.1543V5.32617H18.4678V6.39941ZM27.2041 6.56348C26.0785 6.23991 25.2581 5.84342 24.7432 5.37402C24.2327 4.90007 23.9775 4.31673 23.9775 3.62402C23.9775 2.84017 24.2897 2.19303 24.9141 1.68262C25.543 1.16764 26.3587 0.910156 27.3613 0.910156C28.0449 0.910156 28.6533 1.04232 29.1865 1.30664C29.7243 1.57096 30.139 1.93555 30.4307 2.40039C30.7269 2.86523 30.875 3.37337 30.875 3.9248H29.5557C29.5557 3.32324 29.3643 2.85156 28.9814 2.50977C28.5986 2.16341 28.0586 1.99023 27.3613 1.99023C26.7142 1.99023 26.2083 2.13379 25.8438 2.4209C25.4837 2.70345 25.3037 3.09766 25.3037 3.60352C25.3037 4.00911 25.4746 4.35319 25.8164 4.63574C26.1628 4.91374 26.7484 5.16895 27.5732 5.40137C28.4027 5.63379 29.0498 5.89128 29.5146 6.17383C29.984 6.45182 30.3304 6.77767 30.5537 7.15137C30.7816 7.52507 30.8955 7.96484 30.8955 8.4707C30.8955 9.27734 30.5811 9.92448 29.9521 10.4121C29.3232 10.8952 28.4824 11.1367 27.4297 11.1367C26.7461 11.1367 26.1081 11.0068 25.5156 10.7471C24.9232 10.4827 24.4652 10.1227 24.1416 9.66699C23.8226 9.21126 23.6631 8.69401 23.6631 8.11523H24.9824C24.9824 8.7168 25.2035 9.19303 25.6455 9.54395C26.0921 9.8903 26.6868 10.0635 27.4297 10.0635C28.1224 10.0635 28.6533 9.9222 29.0225 9.63965C29.3916 9.3571 29.5762 8.97201 29.5762 8.48438C29.5762 7.99674 29.4053 7.62077 29.0635 7.35645C28.7217 7.08757 28.1019 6.82324 27.2041 6.56348ZM38.9893 6.56348C37.8636 6.23991 37.0433 5.84342 36.5283 5.37402C36.0179 4.90007 35.7627 4.31673 35.7627 3.62402C35.7627 2.84017 36.0749 2.19303 36.6992 1.68262C37.3281 1.16764 38.1439 0.910156 39.1465 0.910156C39.8301 0.910156 40.4385 1.04232 40.9717 1.30664C41.5094 1.57096 41.9242 1.93555 42.2158 2.40039C42.512 2.86523 42.6602 3.37337 42.6602 3.9248H41.3408C41.3408 3.32324 41.1494 2.85156 40.7666 2.50977C40.3838 2.16341 39.8438 1.99023 39.1465 1.99023C38.4993 1.99023 37.9935 2.13379 37.6289 2.4209C37.2689 2.70345 37.0889 3.09766 37.0889 3.60352C37.0889 4.00911 37.2598 4.35319 37.6016 4.63574C37.9479 4.91374 38.5335 5.16895 39.3584 5.40137C40.1878 5.63379 40.835 5.89128 41.2998 6.17383C41.7692 6.45182 42.1156 6.77767 42.3389 7.15137C42.5667 7.52507 42.6807 7.96484 42.6807 8.4707C42.6807 9.27734 42.3662 9.92448 41.7373 10.4121C41.1084 10.8952 40.2676 11.1367 39.2148 11.1367C38.5312 11.1367 37.8932 11.0068 37.3008 10.7471C36.7083 10.4827 36.2503 10.1227 35.9268 9.66699C35.6077 9.21126 35.4482 8.69401 35.4482 8.11523H36.7676C36.7676 8.7168 36.9886 9.19303 37.4307 9.54395C37.8773 9.8903 38.472 10.0635 39.2148 10.0635C39.9076 10.0635 40.4385 9.9222 40.8076 9.63965C41.1768 9.3571 41.3613 8.97201 41.3613 8.48438C41.3613 7.99674 41.1904 7.62077 40.8486 7.35645C40.5068 7.08757 39.887 6.82324 38.9893 6.56348ZM49.25 11H47.9375V1.04688H49.25V11ZM62.4502 7.8418C62.3271 8.89453 61.9375 9.70801 61.2812 10.2822C60.6296 10.8519 59.7614 11.1367 58.6768 11.1367C57.501 11.1367 56.5576 10.7152 55.8467 9.87207C55.1403 9.02897 54.7871 7.90104 54.7871 6.48828V5.53125C54.7871 4.60612 54.9512 3.79264 55.2793 3.09082C55.612 2.389 56.0814 1.85124 56.6875 1.47754C57.2936 1.09928 57.9954 0.910156 58.793 0.910156C59.8503 0.910156 60.6979 1.20638 61.3359 1.79883C61.974 2.38672 62.3454 3.20247 62.4502 4.24609H61.1309C61.0169 3.45312 60.7686 2.87891 60.3857 2.52344C60.0075 2.16797 59.4766 1.99023 58.793 1.99023C57.9544 1.99023 57.2959 2.30013 56.8174 2.91992C56.3434 3.53971 56.1064 4.42155 56.1064 5.56543V6.5293C56.1064 7.60938 56.332 8.46842 56.7832 9.10645C57.2344 9.74447 57.8656 10.0635 58.6768 10.0635C59.4059 10.0635 59.9642 9.89941 60.3516 9.57129C60.7435 9.23861 61.0033 8.66211 61.1309 7.8418H62.4502ZM73.2168 8.40234H69.0469L68.1104 11H66.7568L70.5576 1.04688H71.7061L75.5137 11H74.167L73.2168 8.40234ZM69.4434 7.32227H72.8271L71.1318 2.66699L69.4434 7.32227ZM94.9209 11H93.6016L88.5908 3.33008V11H87.2715V1.04688H88.5908L93.6152 8.75098V1.04688H94.9209V11ZM108.374 11H107.055L102.044 3.33008V11H100.725V1.04688H102.044L107.068 8.75098V1.04688H108.374V11ZM119.804 6.39941H115.49V9.92676H120.501V11H114.178V1.04688H120.433V2.12695H115.49V5.32617H119.804V6.39941ZM125.607 11V1.04688H128.861C129.941 1.04688 130.753 1.27018 131.295 1.7168C131.842 2.16341 132.115 2.82422 132.115 3.69922C132.115 4.16406 131.983 4.5765 131.719 4.93652C131.454 5.29199 131.094 5.56771 130.639 5.76367C131.176 5.91406 131.6 6.20117 131.91 6.625C132.225 7.04427 132.382 7.54557 132.382 8.12891C132.382 9.02214 132.092 9.72396 131.514 10.2344C130.935 10.7448 130.117 11 129.06 11H125.607ZM126.92 6.34473V9.92676H129.087C129.698 9.92676 130.178 9.76953 130.529 9.45508C130.885 9.13607 131.062 8.69857 131.062 8.14258C131.062 6.94401 130.411 6.34473 129.107 6.34473H126.92ZM126.92 5.29199H128.902C129.477 5.29199 129.935 5.14844 130.276 4.86133C130.623 4.57422 130.796 4.18457 130.796 3.69238C130.796 3.14551 130.636 2.74902 130.317 2.50293C129.998 2.25228 129.513 2.12695 128.861 2.12695H126.92V5.29199ZM143.429 6.39941H139.115V9.92676H144.126V11H137.803V1.04688H144.058V2.12695H139.115V5.32617H143.429V6.39941ZM149.232 11V1.04688H152.042C152.908 1.04688 153.674 1.23828 154.339 1.62109C155.004 2.00391 155.517 2.5485 155.877 3.25488C156.242 3.96126 156.426 4.77246 156.431 5.68848V6.32422C156.431 7.26302 156.248 8.08561 155.884 8.79199C155.524 9.49837 155.007 10.0407 154.332 10.4189C153.662 10.7972 152.881 10.9909 151.987 11H149.232ZM150.545 2.12695V9.92676H151.926C152.938 9.92676 153.724 9.6123 154.284 8.9834C154.849 8.35449 155.132 7.45898 155.132 6.29688V5.71582C155.132 4.58561 154.865 3.70833 154.332 3.08398C153.803 2.45508 153.051 2.13607 152.076 2.12695H150.545ZM168.899 1.04688V7.81445C168.895 8.75326 168.599 9.52116 168.011 10.1182C167.427 10.7152 166.634 11.0501 165.632 11.123L165.283 11.1367C164.194 11.1367 163.326 10.8428 162.679 10.2549C162.032 9.66699 161.703 8.85807 161.694 7.82812V1.04688H162.993V7.78711C162.993 8.50716 163.191 9.06771 163.588 9.46875C163.984 9.86523 164.549 10.0635 165.283 10.0635C166.026 10.0635 166.593 9.86523 166.985 9.46875C167.382 9.07227 167.58 8.514 167.58 7.79395V1.04688H168.899ZM176.139 1.04688L179.393 9.16797L182.646 1.04688H184.349V11H183.036V7.12402L183.159 2.94043L179.892 11H178.887L175.626 2.96094L175.756 7.12402V11H174.443V1.04688H176.139Z" fill="#AAAAAB" fill-opacity="0.921875"/>
</svg>
